<mxfile host="app.diagrams.net" modified="2024-03-21T18:26:45.698Z" agent="Mozilla/5.0 (Windows NT 10.0; Win64; x64) AppleWebKit/537.36 (KHTML, like Gecko) Chrome/122.0.0.0 Safari/537.36 Edg/122.0.0.0" etag="SBeYoPCobHNn5Ybvz96h" version="24.0.7" type="google">
  <diagram name="Page-1" id="XYVmNxNuTdPdPDqG_tEH">
    <mxGraphModel grid="1" page="1" gridSize="10" guides="1" tooltips="1" connect="1" arrows="1" fold="1" pageScale="1" pageWidth="827" pageHeight="1169" math="0" shadow="0">
      <root>
        <mxCell id="0" />
        <mxCell id="1" parent="0" />
        <mxCell id="mbGK-YH--Fl3Pt-CjrQt-29" value="" style="group" vertex="1" connectable="0" parent="1">
          <mxGeometry x="140" y="34" width="490" height="550" as="geometry" />
        </mxCell>
        <mxCell id="mbGK-YH--Fl3Pt-CjrQt-4" style="edgeStyle=orthogonalEdgeStyle;rounded=0;orthogonalLoop=1;jettySize=auto;html=1;exitX=0.5;exitY=1;exitDx=0;exitDy=0;" edge="1" parent="mbGK-YH--Fl3Pt-CjrQt-29" source="mbGK-YH--Fl3Pt-CjrQt-1" target="mbGK-YH--Fl3Pt-CjrQt-2">
          <mxGeometry relative="1" as="geometry" />
        </mxCell>
        <mxCell id="mbGK-YH--Fl3Pt-CjrQt-1" value="Teller logs in" style="rounded=1;whiteSpace=wrap;html=1;fillColor=#d5e8d4;strokeColor=#82b366;" vertex="1" parent="mbGK-YH--Fl3Pt-CjrQt-29">
          <mxGeometry x="10" width="120" height="60" as="geometry" />
        </mxCell>
        <mxCell id="mbGK-YH--Fl3Pt-CjrQt-5" style="edgeStyle=orthogonalEdgeStyle;rounded=0;orthogonalLoop=1;jettySize=auto;html=1;exitX=0.5;exitY=1;exitDx=0;exitDy=0;entryX=0.5;entryY=0;entryDx=0;entryDy=0;entryPerimeter=0;" edge="1" parent="mbGK-YH--Fl3Pt-CjrQt-29" source="mbGK-YH--Fl3Pt-CjrQt-2" target="mbGK-YH--Fl3Pt-CjrQt-19">
          <mxGeometry relative="1" as="geometry">
            <mxPoint x="70" y="300" as="targetPoint" />
          </mxGeometry>
        </mxCell>
        <mxCell id="mbGK-YH--Fl3Pt-CjrQt-7" style="edgeStyle=orthogonalEdgeStyle;rounded=0;orthogonalLoop=1;jettySize=auto;html=1;exitX=1;exitY=0.5;exitDx=0;exitDy=0;entryX=0.5;entryY=1;entryDx=0;entryDy=0;" edge="1" parent="mbGK-YH--Fl3Pt-CjrQt-29" source="mbGK-YH--Fl3Pt-CjrQt-2" target="mbGK-YH--Fl3Pt-CjrQt-9">
          <mxGeometry relative="1" as="geometry">
            <mxPoint x="230" y="110" as="targetPoint" />
          </mxGeometry>
        </mxCell>
        <mxCell id="mbGK-YH--Fl3Pt-CjrQt-2" value="Has success?" style="rhombus;whiteSpace=wrap;html=1;fillColor=#d5e8d4;strokeColor=#82b366;" vertex="1" parent="mbGK-YH--Fl3Pt-CjrQt-29">
          <mxGeometry x="10" y="120" width="120" height="100" as="geometry" />
        </mxCell>
        <mxCell id="mbGK-YH--Fl3Pt-CjrQt-6" value="Yes" style="text;html=1;align=center;verticalAlign=middle;resizable=0;points=[];autosize=1;strokeColor=#82b366;fillColor=#d5e8d4;" vertex="1" parent="mbGK-YH--Fl3Pt-CjrQt-29">
          <mxGeometry x="40" y="238" width="40" height="30" as="geometry" />
        </mxCell>
        <mxCell id="mbGK-YH--Fl3Pt-CjrQt-8" value="No" style="text;html=1;align=center;verticalAlign=middle;resizable=0;points=[];autosize=1;strokeColor=#82b366;fillColor=#d5e8d4;" vertex="1" parent="mbGK-YH--Fl3Pt-CjrQt-29">
          <mxGeometry x="160" y="140" width="40" height="30" as="geometry" />
        </mxCell>
        <mxCell id="mbGK-YH--Fl3Pt-CjrQt-10" style="edgeStyle=orthogonalEdgeStyle;rounded=0;orthogonalLoop=1;jettySize=auto;html=1;exitX=0.5;exitY=0;exitDx=0;exitDy=0;entryX=1;entryY=0.5;entryDx=0;entryDy=0;" edge="1" parent="mbGK-YH--Fl3Pt-CjrQt-29" source="mbGK-YH--Fl3Pt-CjrQt-9" target="mbGK-YH--Fl3Pt-CjrQt-1">
          <mxGeometry relative="1" as="geometry" />
        </mxCell>
        <mxCell id="mbGK-YH--Fl3Pt-CjrQt-12" style="edgeStyle=orthogonalEdgeStyle;rounded=0;orthogonalLoop=1;jettySize=auto;html=1;exitX=1;exitY=0.5;exitDx=0;exitDy=0;" edge="1" parent="mbGK-YH--Fl3Pt-CjrQt-29" source="mbGK-YH--Fl3Pt-CjrQt-9">
          <mxGeometry relative="1" as="geometry">
            <mxPoint x="370" y="103.66666666666674" as="targetPoint" />
          </mxGeometry>
        </mxCell>
        <mxCell id="mbGK-YH--Fl3Pt-CjrQt-9" value="log in count &amp;lt; 3" style="rhombus;whiteSpace=wrap;html=1;fillColor=#d5e8d4;strokeColor=#82b366;" vertex="1" parent="mbGK-YH--Fl3Pt-CjrQt-29">
          <mxGeometry x="190" y="60" width="110" height="87" as="geometry" />
        </mxCell>
        <mxCell id="mbGK-YH--Fl3Pt-CjrQt-11" value="Yes" style="text;html=1;align=center;verticalAlign=middle;resizable=0;points=[];autosize=1;strokeColor=#82b366;fillColor=#d5e8d4;" vertex="1" parent="mbGK-YH--Fl3Pt-CjrQt-29">
          <mxGeometry x="170" y="8" width="40" height="30" as="geometry" />
        </mxCell>
        <mxCell id="mbGK-YH--Fl3Pt-CjrQt-14" value="Program ends" style="rounded=1;whiteSpace=wrap;html=1;fillColor=#d5e8d4;strokeColor=#82b366;" vertex="1" parent="mbGK-YH--Fl3Pt-CjrQt-29">
          <mxGeometry x="370" y="73.5" width="120" height="60" as="geometry" />
        </mxCell>
        <mxCell id="mbGK-YH--Fl3Pt-CjrQt-16" value="No" style="text;html=1;align=center;verticalAlign=middle;resizable=0;points=[];autosize=1;strokeColor=#82b366;fillColor=#d5e8d4;" vertex="1" parent="mbGK-YH--Fl3Pt-CjrQt-29">
          <mxGeometry x="300" y="78" width="40" height="30" as="geometry" />
        </mxCell>
        <mxCell id="mbGK-YH--Fl3Pt-CjrQt-22" style="edgeStyle=orthogonalEdgeStyle;rounded=0;orthogonalLoop=1;jettySize=auto;html=1;exitX=1;exitY=0.5;exitDx=0;exitDy=0;exitPerimeter=0;" edge="1" parent="mbGK-YH--Fl3Pt-CjrQt-29" source="mbGK-YH--Fl3Pt-CjrQt-19">
          <mxGeometry relative="1" as="geometry">
            <mxPoint x="70" y="230" as="targetPoint" />
            <Array as="points">
              <mxPoint x="155" y="345" />
              <mxPoint x="155" y="230" />
            </Array>
          </mxGeometry>
        </mxCell>
        <mxCell id="mbGK-YH--Fl3Pt-CjrQt-19" value="are the customer credentials correct?" style="strokeWidth=2;html=1;shape=mxgraph.flowchart.decision;whiteSpace=wrap;fillColor=#d5e8d4;strokeColor=#82b366;" vertex="1" parent="mbGK-YH--Fl3Pt-CjrQt-29">
          <mxGeometry x="2.5" y="290" width="135" height="110" as="geometry" />
        </mxCell>
        <mxCell id="mbGK-YH--Fl3Pt-CjrQt-23" value="No" style="text;html=1;align=center;verticalAlign=middle;resizable=0;points=[];autosize=1;strokeColor=#82b366;fillColor=#d5e8d4;" vertex="1" parent="mbGK-YH--Fl3Pt-CjrQt-29">
          <mxGeometry x="150" y="268" width="40" height="30" as="geometry" />
        </mxCell>
        <mxCell id="mbGK-YH--Fl3Pt-CjrQt-28" value="Display menu options" style="strokeWidth=2;html=1;shape=mxgraph.flowchart.start_2;whiteSpace=wrap;fillColor=#d5e8d4;strokeColor=#82b366;" vertex="1" parent="mbGK-YH--Fl3Pt-CjrQt-29">
          <mxGeometry x="12.5" y="447" width="115" height="104" as="geometry" />
        </mxCell>
        <mxCell id="mbGK-YH--Fl3Pt-CjrQt-31" style="edgeStyle=orthogonalEdgeStyle;rounded=0;orthogonalLoop=1;jettySize=auto;html=1;exitX=0.5;exitY=1;exitDx=0;exitDy=0;exitPerimeter=0;entryX=0.5;entryY=0;entryDx=0;entryDy=0;entryPerimeter=0;" edge="1" parent="mbGK-YH--Fl3Pt-CjrQt-29" source="mbGK-YH--Fl3Pt-CjrQt-19" target="mbGK-YH--Fl3Pt-CjrQt-28">
          <mxGeometry relative="1" as="geometry" />
        </mxCell>
        <mxCell id="mbGK-YH--Fl3Pt-CjrQt-34" style="edgeStyle=orthogonalEdgeStyle;rounded=0;orthogonalLoop=1;jettySize=auto;html=1;exitX=0.5;exitY=1;exitDx=0;exitDy=0;exitPerimeter=0;entryX=0.5;entryY=0;entryDx=0;entryDy=0;fillColor=#d5e8d4;strokeColor=#82b366;" edge="1" parent="1" source="mbGK-YH--Fl3Pt-CjrQt-32" target="mbGK-YH--Fl3Pt-CjrQt-33">
          <mxGeometry relative="1" as="geometry" />
        </mxCell>
        <mxCell id="mbGK-YH--Fl3Pt-CjrQt-32" value="Display menu options" style="strokeWidth=2;html=1;shape=mxgraph.flowchart.start_2;whiteSpace=wrap;fillColor=#d5e8d4;strokeColor=#82b366;" vertex="1" parent="1">
          <mxGeometry x="930" y="34" width="70" height="60" as="geometry" />
        </mxCell>
        <mxCell id="mbGK-YH--Fl3Pt-CjrQt-35" style="edgeStyle=orthogonalEdgeStyle;rounded=0;orthogonalLoop=1;jettySize=auto;html=1;exitX=0.5;exitY=1;exitDx=0;exitDy=0;entryX=0.5;entryY=0;entryDx=0;entryDy=0;entryPerimeter=0;fillColor=#d5e8d4;strokeColor=#82b366;" edge="1" parent="1" source="mbGK-YH--Fl3Pt-CjrQt-33" target="mbGK-YH--Fl3Pt-CjrQt-36">
          <mxGeometry relative="1" as="geometry">
            <mxPoint x="965.3157894736842" y="300" as="targetPoint" />
          </mxGeometry>
        </mxCell>
        <mxCell id="mbGK-YH--Fl3Pt-CjrQt-33" value="1. Display accounts&lt;div&gt;2. Create accounts&lt;/div&gt;&lt;div&gt;3. Close accounts&lt;/div&gt;" style="shape=parallelogram;html=1;strokeWidth=2;perimeter=parallelogramPerimeter;whiteSpace=wrap;rounded=1;arcSize=12;size=0.23;fillColor=#d5e8d4;strokeColor=#82b366;" vertex="1" parent="1">
          <mxGeometry x="865" y="130" width="200" height="90" as="geometry" />
        </mxCell>
        <mxCell id="mbGK-YH--Fl3Pt-CjrQt-39" value="" style="edgeStyle=orthogonalEdgeStyle;rounded=0;orthogonalLoop=1;jettySize=auto;html=1;fillColor=#d5e8d4;strokeColor=#82b366;" edge="1" parent="1" source="mbGK-YH--Fl3Pt-CjrQt-36">
          <mxGeometry relative="1" as="geometry">
            <mxPoint x="1146" y="365" as="targetPoint" />
          </mxGeometry>
        </mxCell>
        <mxCell id="mbGK-YH--Fl3Pt-CjrQt-36" value="If option 1" style="strokeWidth=2;html=1;shape=mxgraph.flowchart.decision;whiteSpace=wrap;fillColor=#d5e8d4;strokeColor=#82b366;" vertex="1" parent="1">
          <mxGeometry x="887.5" y="300" width="155" height="130" as="geometry" />
        </mxCell>
        <mxCell id="mbGK-YH--Fl3Pt-CjrQt-44" value="" style="edgeStyle=orthogonalEdgeStyle;rounded=0;orthogonalLoop=1;jettySize=auto;html=1;fillColor=#d5e8d4;strokeColor=#82b366;" edge="1" parent="1" source="mbGK-YH--Fl3Pt-CjrQt-41" target="mbGK-YH--Fl3Pt-CjrQt-43">
          <mxGeometry relative="1" as="geometry" />
        </mxCell>
        <mxCell id="mbGK-YH--Fl3Pt-CjrQt-46" value="" style="edgeStyle=orthogonalEdgeStyle;rounded=0;orthogonalLoop=1;jettySize=auto;html=1;fillColor=#d5e8d4;strokeColor=#82b366;" edge="1" parent="1" source="mbGK-YH--Fl3Pt-CjrQt-41" target="mbGK-YH--Fl3Pt-CjrQt-45">
          <mxGeometry relative="1" as="geometry" />
        </mxCell>
        <mxCell id="mbGK-YH--Fl3Pt-CjrQt-41" value="If option 2" style="strokeWidth=2;html=1;shape=mxgraph.flowchart.decision;whiteSpace=wrap;fillColor=#d5e8d4;strokeColor=#82b366;" vertex="1" parent="1">
          <mxGeometry x="877.5" y="490" width="175" height="150" as="geometry" />
        </mxCell>
        <mxCell id="mbGK-YH--Fl3Pt-CjrQt-42" style="edgeStyle=orthogonalEdgeStyle;rounded=0;orthogonalLoop=1;jettySize=auto;html=1;exitX=0.5;exitY=1;exitDx=0;exitDy=0;exitPerimeter=0;entryX=0.5;entryY=0;entryDx=0;entryDy=0;entryPerimeter=0;fillColor=#d5e8d4;strokeColor=#82b366;" edge="1" parent="1" source="mbGK-YH--Fl3Pt-CjrQt-36" target="mbGK-YH--Fl3Pt-CjrQt-41">
          <mxGeometry relative="1" as="geometry" />
        </mxCell>
        <mxCell id="mbGK-YH--Fl3Pt-CjrQt-43" value="Create instance of new account using constraints given" style="whiteSpace=wrap;html=1;strokeWidth=2;fillColor=#fff2cc;strokeColor=#d6b656;" vertex="1" parent="1">
          <mxGeometry x="1136" y="517.5" width="210" height="95" as="geometry" />
        </mxCell>
        <mxCell id="mbGK-YH--Fl3Pt-CjrQt-48" value="" style="edgeStyle=orthogonalEdgeStyle;rounded=0;orthogonalLoop=1;jettySize=auto;html=1;fillColor=#d5e8d4;strokeColor=#82b366;" edge="1" parent="1" source="mbGK-YH--Fl3Pt-CjrQt-45" target="mbGK-YH--Fl3Pt-CjrQt-47">
          <mxGeometry relative="1" as="geometry" />
        </mxCell>
        <mxCell id="mbGK-YH--Fl3Pt-CjrQt-45" value="If option 3" style="strokeWidth=2;html=1;shape=mxgraph.flowchart.decision;whiteSpace=wrap;fillColor=#d5e8d4;strokeColor=#82b366;" vertex="1" parent="1">
          <mxGeometry x="877.5" y="720" width="175" height="150" as="geometry" />
        </mxCell>
        <mxCell id="mbGK-YH--Fl3Pt-CjrQt-47" value="Delete accounts" style="whiteSpace=wrap;html=1;strokeWidth=2;fillColor=#fff2cc;strokeColor=#d6b656;" vertex="1" parent="1">
          <mxGeometry x="1146" y="757.5" width="200" height="75" as="geometry" />
        </mxCell>
        <mxCell id="gkKIHmBU2Bqa-EvYflEd-4" value="" style="edgeStyle=orthogonalEdgeStyle;rounded=0;orthogonalLoop=1;jettySize=auto;html=1;" edge="1" parent="1" source="gkKIHmBU2Bqa-EvYflEd-2" target="gkKIHmBU2Bqa-EvYflEd-3">
          <mxGeometry relative="1" as="geometry" />
        </mxCell>
        <mxCell id="gkKIHmBU2Bqa-EvYflEd-2" value="Display Accounts&amp;nbsp;&lt;div&gt;Options&lt;/div&gt;" style="strokeWidth=2;html=1;shape=mxgraph.flowchart.start_2;whiteSpace=wrap;fillColor=#fff2cc;strokeColor=#d6b656;" vertex="1" parent="1">
          <mxGeometry x="1540" y="20" width="70" height="60" as="geometry" />
        </mxCell>
        <mxCell id="gkKIHmBU2Bqa-EvYflEd-15" value="" style="edgeStyle=orthogonalEdgeStyle;rounded=0;orthogonalLoop=1;jettySize=auto;html=1;" edge="1" parent="1" source="gkKIHmBU2Bqa-EvYflEd-3" target="gkKIHmBU2Bqa-EvYflEd-13">
          <mxGeometry relative="1" as="geometry" />
        </mxCell>
        <mxCell id="gkKIHmBU2Bqa-EvYflEd-3" value="1.Personal account 1&lt;div&gt;2. Personal account 2&lt;/div&gt;&lt;div&gt;3. Business account&lt;/div&gt;" style="shape=parallelogram;perimeter=parallelogramPerimeter;whiteSpace=wrap;html=1;fixedSize=1;fillColor=#fff2cc;strokeColor=#d6b656;" vertex="1" parent="1">
          <mxGeometry x="1482.5" y="132.5" width="185" height="85" as="geometry" />
        </mxCell>
        <mxCell id="gkKIHmBU2Bqa-EvYflEd-28" value="" style="edgeStyle=orthogonalEdgeStyle;rounded=0;orthogonalLoop=1;jettySize=auto;html=1;" edge="1" parent="1" source="gkKIHmBU2Bqa-EvYflEd-13" target="gkKIHmBU2Bqa-EvYflEd-16">
          <mxGeometry relative="1" as="geometry" />
        </mxCell>
        <mxCell id="gkKIHmBU2Bqa-EvYflEd-13" value="Display account details:&lt;div&gt;Type of account&lt;/div&gt;&lt;div&gt;balance&lt;/div&gt;&lt;div&gt;overdrafts&lt;/div&gt;&lt;div&gt;account number&lt;/div&gt;&lt;div&gt;sort code&lt;br&gt;account actions&lt;/div&gt;" style="whiteSpace=wrap;html=1;strokeWidth=2;fillColor=#f8cecc;strokeColor=#b85450;" vertex="1" parent="1">
          <mxGeometry x="1495" y="300" width="160" height="107.5" as="geometry" />
        </mxCell>
        <mxCell id="gkKIHmBU2Bqa-EvYflEd-25" value="" style="edgeStyle=orthogonalEdgeStyle;rounded=0;orthogonalLoop=1;jettySize=auto;html=1;" edge="1" parent="1" source="gkKIHmBU2Bqa-EvYflEd-16" target="gkKIHmBU2Bqa-EvYflEd-24">
          <mxGeometry relative="1" as="geometry" />
        </mxCell>
        <mxCell id="gkKIHmBU2Bqa-EvYflEd-16" value="Would the customer like to take an action for the selected account" style="rhombus;whiteSpace=wrap;html=1;fillColor=#f8cecc;strokeColor=#b85450;" vertex="1" parent="1">
          <mxGeometry x="1485" y="480" width="180" height="180" as="geometry" />
        </mxCell>
        <mxCell id="gkKIHmBU2Bqa-EvYflEd-24" value="" style="shape=parallelogram;perimeter=parallelogramPerimeter;whiteSpace=wrap;html=1;fixedSize=1;fillColor=#f8cecc;strokeColor=#b85450;" vertex="1" parent="1">
          <mxGeometry x="1740" y="540" width="120" height="60" as="geometry" />
        </mxCell>
        <mxCell id="gkKIHmBU2Bqa-EvYflEd-26" value="No" style="text;html=1;align=center;verticalAlign=middle;whiteSpace=wrap;rounded=0;" vertex="1" parent="1">
          <mxGeometry x="1667.5" y="540" width="60" height="30" as="geometry" />
        </mxCell>
        <mxCell id="gkKIHmBU2Bqa-EvYflEd-31" value="" style="edgeStyle=orthogonalEdgeStyle;rounded=0;orthogonalLoop=1;jettySize=auto;html=1;" edge="1" parent="1" source="gkKIHmBU2Bqa-EvYflEd-29" target="gkKIHmBU2Bqa-EvYflEd-30">
          <mxGeometry relative="1" as="geometry" />
        </mxCell>
        <mxCell id="gkKIHmBU2Bqa-EvYflEd-29" value="Account Menu" style="ellipse;whiteSpace=wrap;html=1;aspect=fixed;" vertex="1" parent="1">
          <mxGeometry x="2120" y="24" width="80" height="80" as="geometry" />
        </mxCell>
        <mxCell id="gkKIHmBU2Bqa-EvYflEd-36" value="" style="edgeStyle=orthogonalEdgeStyle;rounded=0;orthogonalLoop=1;jettySize=auto;html=1;" edge="1" parent="1" source="gkKIHmBU2Bqa-EvYflEd-30" target="gkKIHmBU2Bqa-EvYflEd-34">
          <mxGeometry relative="1" as="geometry" />
        </mxCell>
        <mxCell id="gkKIHmBU2Bqa-EvYflEd-30" value="1. Withdraw&lt;div&gt;2. Deposit&lt;/div&gt;&lt;div&gt;3. Transfer&lt;/div&gt;&lt;div&gt;4. Close&lt;/div&gt;&lt;div&gt;5. Back&lt;/div&gt;&lt;div&gt;6. Finish&lt;/div&gt;&lt;div&gt;&lt;br&gt;&lt;/div&gt;" style="shape=parallelogram;perimeter=parallelogramPerimeter;whiteSpace=wrap;html=1;fixedSize=1;" vertex="1" parent="1">
          <mxGeometry x="2074" y="194" width="172" height="86" as="geometry" />
        </mxCell>
        <mxCell id="gkKIHmBU2Bqa-EvYflEd-46" value="" style="edgeStyle=orthogonalEdgeStyle;rounded=0;orthogonalLoop=1;jettySize=auto;html=1;" edge="1" parent="1" source="gkKIHmBU2Bqa-EvYflEd-32" target="gkKIHmBU2Bqa-EvYflEd-41">
          <mxGeometry relative="1" as="geometry" />
        </mxCell>
        <mxCell id="gkKIHmBU2Bqa-EvYflEd-54" value="" style="edgeStyle=orthogonalEdgeStyle;rounded=0;orthogonalLoop=1;jettySize=auto;html=1;" edge="1" parent="1" source="gkKIHmBU2Bqa-EvYflEd-32" target="gkKIHmBU2Bqa-EvYflEd-52">
          <mxGeometry relative="1" as="geometry" />
        </mxCell>
        <mxCell id="gkKIHmBU2Bqa-EvYflEd-32" value="If option 3" style="strokeWidth=2;html=1;shape=mxgraph.flowchart.decision;whiteSpace=wrap;" vertex="1" parent="1">
          <mxGeometry x="2082.5" y="662.5" width="155" height="130" as="geometry" />
        </mxCell>
        <mxCell id="gkKIHmBU2Bqa-EvYflEd-38" value="" style="edgeStyle=orthogonalEdgeStyle;rounded=0;orthogonalLoop=1;jettySize=auto;html=1;" edge="1" parent="1" source="gkKIHmBU2Bqa-EvYflEd-33" target="gkKIHmBU2Bqa-EvYflEd-32">
          <mxGeometry relative="1" as="geometry" />
        </mxCell>
        <mxCell id="gkKIHmBU2Bqa-EvYflEd-45" value="" style="edgeStyle=orthogonalEdgeStyle;rounded=0;orthogonalLoop=1;jettySize=auto;html=1;" edge="1" parent="1" source="gkKIHmBU2Bqa-EvYflEd-33" target="gkKIHmBU2Bqa-EvYflEd-40">
          <mxGeometry relative="1" as="geometry" />
        </mxCell>
        <mxCell id="gkKIHmBU2Bqa-EvYflEd-33" value="If option 2" style="strokeWidth=2;html=1;shape=mxgraph.flowchart.decision;whiteSpace=wrap;" vertex="1" parent="1">
          <mxGeometry x="2082.5" y="470" width="155" height="130" as="geometry" />
        </mxCell>
        <mxCell id="gkKIHmBU2Bqa-EvYflEd-37" value="" style="edgeStyle=orthogonalEdgeStyle;rounded=0;orthogonalLoop=1;jettySize=auto;html=1;" edge="1" parent="1" source="gkKIHmBU2Bqa-EvYflEd-34" target="gkKIHmBU2Bqa-EvYflEd-33">
          <mxGeometry relative="1" as="geometry" />
        </mxCell>
        <mxCell id="gkKIHmBU2Bqa-EvYflEd-44" value="" style="edgeStyle=orthogonalEdgeStyle;rounded=0;orthogonalLoop=1;jettySize=auto;html=1;" edge="1" parent="1" source="gkKIHmBU2Bqa-EvYflEd-34" target="gkKIHmBU2Bqa-EvYflEd-39">
          <mxGeometry relative="1" as="geometry" />
        </mxCell>
        <mxCell id="gkKIHmBU2Bqa-EvYflEd-34" value="If option 1" style="strokeWidth=2;html=1;shape=mxgraph.flowchart.decision;whiteSpace=wrap;" vertex="1" parent="1">
          <mxGeometry x="2082.5" y="302.5" width="155" height="130" as="geometry" />
        </mxCell>
        <mxCell id="gkKIHmBU2Bqa-EvYflEd-63" style="edgeStyle=orthogonalEdgeStyle;rounded=0;orthogonalLoop=1;jettySize=auto;html=1;exitX=1;exitY=0.5;exitDx=0;exitDy=0;" edge="1" parent="1" source="gkKIHmBU2Bqa-EvYflEd-39">
          <mxGeometry relative="1" as="geometry">
            <mxPoint x="2460" y="368" as="targetPoint" />
          </mxGeometry>
        </mxCell>
        <mxCell id="gkKIHmBU2Bqa-EvYflEd-39" value="Select amount and subtract from balance" style="rounded=0;whiteSpace=wrap;html=1;" vertex="1" parent="1">
          <mxGeometry x="2310" y="337.5" width="120" height="60" as="geometry" />
        </mxCell>
        <mxCell id="gkKIHmBU2Bqa-EvYflEd-62" style="edgeStyle=orthogonalEdgeStyle;rounded=0;orthogonalLoop=1;jettySize=auto;html=1;exitX=1;exitY=0.5;exitDx=0;exitDy=0;" edge="1" parent="1" source="gkKIHmBU2Bqa-EvYflEd-40">
          <mxGeometry relative="1" as="geometry">
            <mxPoint x="2460" y="534.6666666666665" as="targetPoint" />
          </mxGeometry>
        </mxCell>
        <mxCell id="gkKIHmBU2Bqa-EvYflEd-40" value="Select amount and add to balance" style="rounded=0;whiteSpace=wrap;html=1;" vertex="1" parent="1">
          <mxGeometry x="2310" y="505" width="120" height="60" as="geometry" />
        </mxCell>
        <mxCell id="gkKIHmBU2Bqa-EvYflEd-47" style="edgeStyle=orthogonalEdgeStyle;rounded=0;orthogonalLoop=1;jettySize=auto;html=1;exitX=1;exitY=0.5;exitDx=0;exitDy=0;entryX=1;entryY=0.5;entryDx=0;entryDy=0;" edge="1" parent="1" source="gkKIHmBU2Bqa-EvYflEd-41" target="gkKIHmBU2Bqa-EvYflEd-30">
          <mxGeometry relative="1" as="geometry">
            <Array as="points">
              <mxPoint x="2420" y="730" />
              <mxPoint x="2460" y="730" />
              <mxPoint x="2460" y="237" />
            </Array>
          </mxGeometry>
        </mxCell>
        <mxCell id="gkKIHmBU2Bqa-EvYflEd-41" value="Select amount and transfer to target account. Subtract from active account" style="rounded=0;whiteSpace=wrap;html=1;" vertex="1" parent="1">
          <mxGeometry x="2300" y="697.5" width="120" height="60" as="geometry" />
        </mxCell>
        <mxCell id="gkKIHmBU2Bqa-EvYflEd-55" value="" style="edgeStyle=orthogonalEdgeStyle;rounded=0;orthogonalLoop=1;jettySize=auto;html=1;" edge="1" parent="1" source="gkKIHmBU2Bqa-EvYflEd-52" target="gkKIHmBU2Bqa-EvYflEd-53">
          <mxGeometry relative="1" as="geometry" />
        </mxCell>
        <mxCell id="gkKIHmBU2Bqa-EvYflEd-57" value="" style="edgeStyle=orthogonalEdgeStyle;rounded=0;orthogonalLoop=1;jettySize=auto;html=1;" edge="1" parent="1" source="gkKIHmBU2Bqa-EvYflEd-52" target="gkKIHmBU2Bqa-EvYflEd-56">
          <mxGeometry relative="1" as="geometry" />
        </mxCell>
        <mxCell id="gkKIHmBU2Bqa-EvYflEd-52" value="if option 4" style="strokeWidth=2;html=1;shape=mxgraph.flowchart.decision;whiteSpace=wrap;" vertex="1" parent="1">
          <mxGeometry x="2082.5" y="820" width="155" height="130" as="geometry" />
        </mxCell>
        <mxCell id="gkKIHmBU2Bqa-EvYflEd-60" style="edgeStyle=orthogonalEdgeStyle;rounded=0;orthogonalLoop=1;jettySize=auto;html=1;exitX=0;exitY=0.5;exitDx=0;exitDy=0;exitPerimeter=0;" edge="1" parent="1" source="gkKIHmBU2Bqa-EvYflEd-53">
          <mxGeometry relative="1" as="geometry">
            <mxPoint x="2000" y="1054.6666666666665" as="targetPoint" />
          </mxGeometry>
        </mxCell>
        <mxCell id="gkKIHmBU2Bqa-EvYflEd-53" value="if option 5" style="strokeWidth=2;html=1;shape=mxgraph.flowchart.decision;whiteSpace=wrap;" vertex="1" parent="1">
          <mxGeometry x="2082.5" y="990" width="155" height="130" as="geometry" />
        </mxCell>
        <mxCell id="gkKIHmBU2Bqa-EvYflEd-58" style="edgeStyle=orthogonalEdgeStyle;rounded=0;orthogonalLoop=1;jettySize=auto;html=1;exitX=1;exitY=0.5;exitDx=0;exitDy=0;entryX=1;entryY=0.5;entryDx=0;entryDy=0;" edge="1" parent="1" source="gkKIHmBU2Bqa-EvYflEd-56" target="gkKIHmBU2Bqa-EvYflEd-3">
          <mxGeometry relative="1" as="geometry">
            <Array as="points">
              <mxPoint x="2440" y="885" />
              <mxPoint x="2440" y="1140" />
              <mxPoint x="2000" y="1140" />
              <mxPoint x="2000" y="175" />
            </Array>
          </mxGeometry>
        </mxCell>
        <mxCell id="gkKIHmBU2Bqa-EvYflEd-56" value="Close Account" style="whiteSpace=wrap;html=1;strokeWidth=2;" vertex="1" parent="1">
          <mxGeometry x="2300" y="855" width="120" height="60" as="geometry" />
        </mxCell>
        <mxCell id="lidYd4i_WzZyEO_Crm31-1" value="Display Accounts&amp;nbsp;&lt;div&gt;Options&lt;/div&gt;" style="strokeWidth=2;html=1;shape=mxgraph.flowchart.start_2;whiteSpace=wrap;fillColor=#fff2cc;strokeColor=#d6b656;" vertex="1" parent="1">
          <mxGeometry x="1146" y="310" width="164" height="115" as="geometry" />
        </mxCell>
        <mxCell id="3v1qGfVr7NcxS-O-XXbP-1" style="edgeStyle=orthogonalEdgeStyle;rounded=0;orthogonalLoop=1;jettySize=auto;html=1;exitX=1;exitY=0.5;exitDx=0;exitDy=0;exitPerimeter=0;entryX=0;entryY=0.5;entryDx=0;entryDy=0;entryPerimeter=0;" edge="1" parent="1" source="mbGK-YH--Fl3Pt-CjrQt-28" target="mbGK-YH--Fl3Pt-CjrQt-32">
          <mxGeometry relative="1" as="geometry">
            <Array as="points">
              <mxPoint x="700" y="533" />
              <mxPoint x="700" y="64" />
            </Array>
          </mxGeometry>
        </mxCell>
      </root>
    </mxGraphModel>
  </diagram>
</mxfile>
